HIERARCHY
ROOT root
{
	OFFSET	0	13.1	24.9
	CHANNELS 6  Xposition Yposition Zposition Xrotation Yrotation Zrotation
	JOINT spine_1
	{
		OFFSET	0	9.99999	0
		CHANNELS 3  Xrotation Yrotation Zrotation
		JOINT spine_2
		{
			OFFSET	0	112	-10
			CHANNELS 3  Xrotation Yrotation Zrotation
			JOINT spine_3
			{
				OFFSET	0	206.5	19.3
				CHANNELS 3  Xrotation Yrotation Zrotation
				JOINT spine_4
				{
					OFFSET	0	110.4	14.6
					CHANNELS 3  Xrotation Yrotation Zrotation
					JOINT neck_1
					{
						OFFSET	0	71.8	-50.3
						CHANNELS 3  Xrotation Yrotation Zrotation
						JOINT neck_2
						{
							OFFSET	0	86.2	-25.8
							CHANNELS 3  Xrotation Yrotation Zrotation
							JOINT head_ee
							{
								OFFSET	0	179.8	-8.7
								CHANNELS 3  Xrotation Yrotation Zrotation
								End Site
								{
									OFFSET	1	0	0
								}
							}
						}
					}
					JOINT left_clavicle
					{
						OFFSET	-43.2	22.4	-70.8
						CHANNELS 3  Xrotation Yrotation Zrotation
						JOINT left_shoulder
						{
							OFFSET	-93.9	-5.79999	48.7
							CHANNELS 3  Xrotation Yrotation Zrotation
							JOINT left_elbow
							{
								OFFSET	-291.4	-30.8	15.2
								CHANNELS 3  Xrotation Yrotation Zrotation
								JOINT left_lowarm_twist
								{
									OFFSET	-110.7	-3.89999	13.6
									CHANNELS 3  Xrotation Yrotation Zrotation
									JOINT left_hand
									{
										OFFSET	-110.7	-3.89999	13.6
										CHANNELS 3  Xrotation Yrotation Zrotation
										JOINT left_ee
										{
											OFFSET	-80.8	-5.10001	12.1
											CHANNELS 3  Xrotation Yrotation Zrotation
											End Site
											{
												OFFSET	1	0	0
											}
										}
									}
								}
							}
						}
					}
					JOINT right_clavicle
					{
						OFFSET	43.2	22.4	-70.8
						CHANNELS 3  Xrotation Yrotation Zrotation
						JOINT right_shoulder
						{
							OFFSET	93.9	-5.79999	48.7
							CHANNELS 3  Xrotation Yrotation Zrotation
							JOINT right_elbow
							{
								OFFSET	291.4	-30.8	15.2
								CHANNELS 3  Xrotation Yrotation Zrotation
								JOINT right_lowarm_twist
								{
									OFFSET	110.7	-3.89999	13.6
									CHANNELS 3  Xrotation Yrotation Zrotation
									JOINT right_hand
									{
										OFFSET	110.7	-3.89999	13.6
										CHANNELS 3  Xrotation Yrotation Zrotation
										JOINT right_ee
										{
											OFFSET	80.8	-5.10001	12.1
											CHANNELS 3  Xrotation Yrotation Zrotation
											End Site
											{
												OFFSET	1	0	0
											}
										}
									}
								}
							}
						}
					}
				}
			}
		}
	}
	JOINT left_hip
	{
		OFFSET	-82.8	-127.5	0.300001
		CHANNELS 3  Xrotation Yrotation Zrotation
		JOINT left_knee
		{
			OFFSET	-28.2	-396.7	2.2
			CHANNELS 3  Xrotation Yrotation Zrotation
			JOINT left_ankle
			{
				OFFSET	-11.7	-411.3	35.4
				CHANNELS 3  Xrotation Yrotation Zrotation
				JOINT left_toes
				{
					OFFSET	0	-60	-88.6
					CHANNELS 3  Xrotation Yrotation Zrotation
					JOINT left_foot_ee
					{
						OFFSET	-22.5	-16.5	-42.2
						CHANNELS 3  Xrotation Yrotation Zrotation
						End Site
						{
							OFFSET	1	0	0
						}
					}
				}
			}
		}
	}
	JOINT right_hip
	{
		OFFSET	82.8	-127.5	0.300001
		CHANNELS 3  Xrotation Yrotation Zrotation
		JOINT right_knee
		{
			OFFSET	28.2	-396.7	2.2
			CHANNELS 3  Xrotation Yrotation Zrotation
			JOINT right_ankle
			{
				OFFSET	11.7	-411.3	35.4
				CHANNELS 3  Xrotation Yrotation Zrotation
				JOINT right_toes
				{
					OFFSET	0	-60	-88.6
					CHANNELS 3  Xrotation Yrotation Zrotation
					JOINT right_foot_ee
					{
						OFFSET	22.5	-16.5	-42.2
						CHANNELS 3  Xrotation Yrotation Zrotation
						End Site
						{
							OFFSET	1	0	0
						}
					}
				}
			}
		}
	}
}
MOTION
Frames: 12
Frame Time: 0.02
1041.4 574.639 -1682.42 -4.86609180071 23.0495386155 2.91856241771 4.09053 0.45878 0.60751 4.09064 0.419193 0.635471 4.09523 0.326249 0.687827 4.09482 0.430782 0.627673 -1.43441 -0.627921 -5.23196 -1.34415 3.06111 -5.619 -0.0 0.0 -0.0 3.17384 7.15048 6.52582 -30.6075 -34.1518 68.8675 0.262634 -7.41277 0.0170132 47.3399 -0.78502 -5.82665 1.85544 8.76459 15.8275 -0.0 0.0 -0.0 11.0246 20.6294 -21.6642 7.72184 -14.0696 -61.3747 2.13007 46.532 -0.91594 73.7205 3.13529 8.21693 1.30578 -26.4946 -17.9822 0.0 0.0 0.0 34.7457 -17.6646 -7.12245 -13.058 0.313745 1.97504 40.3489 5.52413 -4.88814 -14.1181 0.0 0.0 -0.0 0.0 -0.0 5.45312 -1.93483 2.66535 -32.1739 0.0453196 -4.87305 35.7439 -2.87612 4.4747 25.19 -0.0 -0.0 0.0 0.0 0.0 
1041.4 574.639 -1682.42 -4.88971328342 23.6900747695 2.978111809 4.09053 0.45878 0.60751 4.09064 0.419193 0.635471 4.09523 0.326249 0.687827 4.09482 0.430782 0.627673 -1.43441 -0.627921 -5.23196 -1.34415 3.06111 -5.619 -0.0 0.0 -0.0 3.17384 7.15048 6.52582 -30.6075 -34.1518 68.8675 0.262634 -7.41277 0.0170132 47.3399 -0.78502 -5.82665 1.85544 8.76459 15.8275 -0.0 0.0 -0.0 11.0246 20.6294 -21.6642 7.72184 -14.0696 -61.3747 2.13007 46.532 -0.91594 73.7205 3.13529 8.21693 1.30578 -26.4946 -17.9822 0.0 0.0 0.0 34.7457 -17.6646 -7.12245 -13.058 0.313745 1.97504 40.3489 5.52413 -4.88814 -14.1181 0.0 0.0 -0.0 0.0 -0.0 5.45312 -1.93483 2.66535 -32.1739 0.0453196 -4.87305 35.7439 -2.87612 4.4747 25.19 -0.0 -0.0 0.0 0.0 0.0 
1041.4 574.639 -1682.42 -4.92234601991 24.5393640717 3.05798120394 4.09053 0.45878 0.60751 4.09064 0.419193 0.635471 4.09523 0.326249 0.687827 4.09482 0.430782 0.627673 -1.43441 -0.627921 -5.23196 -1.34415 3.06111 -5.619 -0.0 0.0 -0.0 3.17384 7.15048 6.52582 -30.6075 -34.1518 68.8675 0.262634 -7.41277 0.0170132 47.3399 -0.78502 -5.82665 1.85544 8.76459 15.8275 -0.0 0.0 -0.0 11.0246 20.6294 -21.6642 7.72184 -14.0696 -61.3747 2.13007 46.532 -0.91594 73.7205 3.13529 8.21693 1.30578 -26.4946 -17.9822 0.0 0.0 0.0 34.7457 -17.6646 -7.12245 -13.058 0.313745 1.97504 40.3489 5.52413 -4.88814 -14.1181 0.0 0.0 -0.0 0.0 -0.0 5.45312 -1.93483 2.66535 -32.1739 0.0453196 -4.87305 35.7439 -2.87612 4.4747 25.19 -0.0 -0.0 0.0 0.0 0.0 
1041.4 574.639 -1682.42 -4.93900262568 24.9582004066 3.09776831606 4.09053 0.45878 0.60751 4.09064 0.419193 0.635471 4.09523 0.326249 0.687827 4.09482 0.430782 0.627673 -1.43441 -0.627921 -5.23196 -1.34415 3.06111 -5.619 -0.0 0.0 -0.0 3.17384 7.15048 6.52582 -30.6075 -34.1518 68.8675 0.262634 -7.41277 0.0170132 47.3399 -0.78502 -5.82665 1.85544 8.76459 15.8275 -0.0 0.0 -0.0 11.0246 20.6294 -21.6642 7.72184 -14.0696 -61.3747 2.13007 46.532 -0.91594 73.7205 3.13529 8.21693 1.30578 -26.4946 -17.9822 0.0 0.0 0.0 34.7457 -17.6646 -7.12245 -13.058 0.313745 1.97504 40.3489 5.52413 -4.88814 -14.1181 0.0 0.0 -0.0 0.0 -0.0 5.45312 -1.93483 2.66535 -32.1739 0.0453196 -4.87305 35.7439 -2.87612 4.4747 25.19 -0.0 -0.0 0.0 0.0 0.0 
1041.4 574.639 -1682.42 -4.96724271533 25.6474579282 3.16384087277 4.09053 0.45878 0.60751 4.09064 0.419193 0.635471 4.09523 0.326249 0.687827 4.09482 0.430782 0.627673 -1.43441 -0.627921 -5.23196 -1.34415 3.06111 -5.619 -0.0 0.0 -0.0 3.17384 7.15048 6.52582 -30.6075 -34.1518 68.8675 0.262634 -7.41277 0.0170132 47.3399 -0.78502 -5.82665 1.85544 8.76459 15.8275 -0.0 0.0 -0.0 11.0246 20.6294 -21.6642 7.72184 -14.0696 -61.3747 2.13007 46.532 -0.91594 73.7205 3.13529 8.21693 1.30578 -26.4946 -17.9822 0.0 0.0 0.0 34.7457 -17.6646 -7.12245 -13.058 0.313745 1.97504 40.3489 5.52413 -4.88814 -14.1181 0.0 0.0 -0.0 0.0 -0.0 5.45312 -1.93483 2.66535 -32.1739 0.0453196 -4.87305 35.7439 -2.87612 4.4747 25.19 -0.0 -0.0 0.0 0.0 0.0 
1026.10506704 576.196 -1691.91196638 -5.45132628316 25.4995336109 3.88801086037 4.18783 0.257297 0.481277 4.18793 0.226151 0.496674 4.18983 0.155356 0.523157 4.18953 0.236028 0.492057 -1.25391 -0.861453 -5.93531 -1.13923 3.22142 -6.40488 -0.0 0.0 -0.0 3.31511 6.98646 6.77175 -29.8316 -34.3332 68.9464 0.272343 -7.68361 0.0182886 47.1307 -0.771138 -5.80375 1.80936 8.44442 15.4019 -0.0 0.0 -0.0 11.2782 17.5322 -22.4409 7.18912 -15.5918 -61.0346 2.12644 46.4833 -0.913311 74.1695 3.1841 8.24755 1.27093 -27.0656 -17.9367 0.0 0.0 0.0 34.0344 -18.1931 -6.94804 -12.0248 0.305413 1.81674 40.1996 4.66677 -4.87509 -14.1242 0.0 0.0 -0.0 0.0 -0.0 6.33641 -2.9276 3.61425 -33.5593 0.108637 -5.07619 37.2203 -1.15558 4.62096 25.1959 -0.0 -0.0 0.0 0.0 0.0 
1010.38068528 578.981 -1699.47655601 -5.92742043996 24.884521251 4.5316006078 4.18744 0.0589907 0.320062 4.1875 0.0385049 0.323167 4.18768 -0.0065336 0.325388 4.18754 0.044937 0.322336 -1.17929 -0.974894 -6.18813 -1.05546 3.22817 -6.69203 -0.0 0.0 -0.0 3.66704 6.63602 7.39155 -28.8054 -34.4134 68.5921 0.283728 -8.00071 0.0198419 47.1428 -0.771941 -5.80508 1.80877 8.44551 15.3983 -0.0 0.0 -0.0 11.2703 17.5813 -22.4204 5.83652 -16.1166 -60.7945 1.98541 44.5189 -0.812703 74.1004 3.17658 8.24286 1.14588 -26.8877 -17.1558 0.0 0.0 0.0 33.765 -18.3729 -6.59958 -11.6958 0.30216 1.76636 40.1781 4.20092 -4.87358 -14.1113 0.0 0.0 -0.0 0.0 -0.0 6.58633 -2.77812 4.06183 -33.5631 0.10882 -5.07675 37.7674 -1.09078 4.67138 25.2049 -0.0 -0.0 0.0 0.0 0.0 
992.432575465 584.356 -1711.64223911 -6.4739983919 23.8025329849 5.33468617185 4.41549 0.154816 -0.112153 4.41549 0.161638 -0.102075 4.4152 0.173882 -0.0794435 4.41523 0.159153 -0.105908 -0.0056088 -0.364305 -5.06651 0.0857022 3.5 -5.49289 -0.0 0.0 -0.0 3.7766 5.81159 7.5573 -26.7952 -35.105 66.9815 0.356996 -10.029 0.0313244 47.2189 -0.77698 -5.81341 1.79683 8.50451 15.3393 -0.0 0.0 -0.0 11.0516 18.5771 -21.8664 2.52682 -16.9528 -60.761 1.74747 40.8773 -0.651262 73.5902 3.12117 8.20797 1.12108 -26.3331 -16.8506 0.0 0.0 0.0 32.1567 -18.7831 -7.33821 -11.8579 0.303798 1.79118 40.0192 4.66143 -4.85953 -14.0182 0.0 0.0 -0.0 0.0 -0.0 7.51852 -2.71938 4.20485 -33.4805 0.104906 -5.06468 37.1269 -0.730923 4.61496 25.0202 -0.0 -0.0 0.0 0.0 0.0 
991.829881091 584.356 -1710.60778521 -6.53582028561 24.997735199 5.484329164 4.41549 0.154816 -0.112153 4.41549 0.161638 -0.102075 4.4152 0.173882 -0.0794435 4.41523 0.159153 -0.105908 -0.0056088 -0.364305 -5.06651 0.0857022 3.5 -5.49289 -0.0 0.0 -0.0 3.7766 5.81159 7.5573 -26.7952 -35.105 66.9815 0.356996 -10.029 0.0313244 47.2189 -0.77698 -5.81341 1.79683 8.50451 15.3393 -0.0 0.0 -0.0 11.0516 18.5771 -21.8664 2.52682 -16.9528 -60.761 1.74747 40.8773 -0.651262 73.5902 3.12117 8.20797 1.12108 -26.3331 -16.8506 0.0 0.0 0.0 32.1567 -18.7831 -7.33821 -11.8579 0.303798 1.79118 40.0192 4.66143 -4.85953 -14.0182 0.0 0.0 -0.0 0.0 -0.0 7.51852 -2.71938 4.20485 -33.4805 0.104906 -5.06468 37.1269 -0.730923 4.61496 25.0202 -0.0 -0.0 0.0 0.0 0.0 
973.098195104 590.558 -1721.26897132 -6.6620011132 24.8981106553 6.3130200207 4.48148 0.170131 -0.368085 4.48153 0.193209 -0.356513 4.48029 0.238966 -0.327607 4.48019 0.184228 -0.361236 0.847435 -0.0265413 -4.30708 0.919373 3.52373 -4.68488 -0.0 0.0 -0.0 3.63382 6.23884 7.3147 -25.363 -36.497 66.4032 0.402355 -11.2724 0.0397081 46.0448 -0.700424 -5.6841 1.41706 6.49674 12.0502 -0.0 0.0 -0.0 11.0697 18.4083 -21.9178 -2.19011 -17.6292 -60.8437 1.50583 36.7185 -0.499761 75.2486 3.3024 8.31957 1.21093 -25.437 -17.1192 0.0 0.0 0.0 30.562 -19.1256 -7.56007 -12.3799 0.308598 1.87113 40.4053 4.54513 -4.8928 -13.5921 0.0 0.0 -0.0 0.0 -0.0 7.58367 -3.03365 4.38788 -32.9348 0.0794887 -4.98481 36.2655 -0.342546 4.53735 25.0326 -0.0 -0.0 0.0 0.0 0.0 
953.405380252 593.924 -1734.95939276 -6.38721990217 24.5324055004 7.05608958797 4.63965 0.0944963 -0.922556 4.64011 0.153007 -0.914674 4.63733 0.271043 -0.886893 4.63625 0.127579 -0.918566 0.790823 0.800954 -2.98082 0.835665 3.88719 -3.16042 -0.0 0.0 -0.0 3.47695 6.60221 7.04605 -24.4593 -38.856 66.0805 0.489752 -13.6372 0.0585608 45.6247 -0.673682 -5.63746 1.29939 6.25447 11.1723 -0.0 0.0 -0.0 10.7402 20.7758 -21.0096 -5.42641 -17.1789 -60.9623 1.36165 33.9987 -0.416297 76.4088 3.43106 8.39451 1.05364 -24.7852 -15.9923 0.0 0.0 0.0 29.2884 -17.7175 -7.99532 -12.7899 0.311857 1.93395 40.3784 4.14995 -4.89083 -13.0469 0.0 0.0 -0.0 0.0 -0.0 8.11313 -1.87439 4.07407 -32.955 0.0804143 -4.98777 36.0679 1.57056 4.53466 24.9808 -0.0 -0.0 0.0 0.0 0.0 
952.128557345 593.924 -1732.75935262 -6.46223784752 25.9455924451 7.23201139691 4.63965 0.0944963 -0.922556 4.64011 0.153007 -0.914674 4.63733 0.271043 -0.886893 4.63625 0.127579 -0.918566 0.790823 0.800954 -2.98082 0.835665 3.88719 -3.16042 -0.0 0.0 -0.0 3.47695 6.60221 7.04605 -24.4593 -38.856 66.0805 0.489752 -13.6372 0.0585608 45.6247 -0.673682 -5.63746 1.29939 6.25447 11.1723 -0.0 0.0 -0.0 10.7402 20.7758 -21.0096 -5.42641 -17.1789 -60.9623 1.36165 33.9987 -0.416297 76.4088 3.43106 8.39451 1.05364 -24.7852 -15.9923 0.0 0.0 0.0 29.2884 -17.7175 -7.99532 -12.7899 0.311857 1.93395 40.3784 4.14995 -4.89083 -13.0469 0.0 0.0 -0.0 0.0 -0.0 8.11313 -1.87439 4.07407 -32.955 0.0804143 -4.98777 36.0679 1.57056 4.53466 24.9808 -0.0 -0.0 0.0 0.0 0.0 
